<svg width="14" height="20" viewBox="0 0 14 20" fill="none" xmlns="http://www.w3.org/2000/svg">
<path d="M6.66668 0C2.99074 0 0 2.99074 0 6.66668C0 7.7702 0.275898 8.86434 0.80039 9.8348L6.30211 19.7852C6.37535 19.9178 6.51492 20 6.66668 20C6.81844 20 6.95801 19.9178 7.03125 19.7852L12.535 9.83152C13.0575 8.86434 13.3334 7.77016 13.3334 6.66664C13.3334 2.99074 10.3426 0 6.66668 0ZM6.66668 10C4.82871 10 3.33336 8.50465 3.33336 6.66668C3.33336 4.82871 4.82871 3.33336 6.66668 3.33336C8.50465 3.33336 10 4.82871 10 6.66668C10 8.50465 8.50465 10 6.66668 10Z" fill="white"/>
</svg>
