<svg width="250" height="76" viewBox="0 0 250 76" fill="none" xmlns="http://www.w3.org/2000/svg">
<path d="M182.37 60.6099C185.622 60.6099 187.655 63.3058 187.655 66.237C187.655 66.4082 187.633 66.5794 187.633 66.7506H177.941C178.197 69.1683 180.038 70.7516 182.477 70.7516C184.231 70.7516 185.558 69.9386 186.178 68.8046L187.12 69.3609C186.242 70.8158 184.574 71.7786 182.455 71.7786C179.16 71.7786 176.828 69.4251 176.828 66.1943C176.828 63.049 179.096 60.6099 182.37 60.6099ZM182.37 61.6369C179.931 61.6369 178.155 63.3272 177.941 65.7021H186.542C186.307 63.0918 184.467 61.6369 182.37 61.6369Z" fill="white"/>
<path d="M173.181 60.8452H174.251V71.5433H173.181V69.5106C172.368 71.094 170.999 71.7786 169.351 71.7786C166.805 71.7786 165.2 70.0883 165.2 67.4994V60.8452H166.291V67.4994C166.291 69.4679 167.425 70.7516 169.437 70.7516C171.533 70.7516 173.181 69.3823 173.181 66.4938V60.8452Z" fill="white"/>
<path d="M161.124 60.8452H162.193V75.8225H161.124V69.0613C160.246 70.7088 158.599 71.7786 156.524 71.7786C153.464 71.7786 150.982 69.3609 150.982 66.1943C150.982 63.0276 153.464 60.6099 156.524 60.6099C158.599 60.6099 160.246 61.6797 161.124 63.3272V60.8452ZM156.588 70.7516C159.134 70.7516 161.124 68.7404 161.124 66.1943C161.124 63.6481 159.134 61.6369 156.588 61.6369C154.042 61.6369 152.052 63.6481 152.052 66.1943C152.052 68.7404 154.042 70.7516 156.588 70.7516Z" fill="white"/>
<path d="M147.856 58.2562C147.385 58.2562 147 57.8711 147 57.4004C147 56.951 147.385 56.5659 147.856 56.5659C148.327 56.5659 148.712 56.951 148.712 57.4004C148.712 57.8711 148.327 58.2562 147.856 58.2562ZM147.321 71.5432V60.8451H148.391V71.5432H147.321Z" fill="white"/>
<path d="M140.143 60.6099C142.69 60.6099 144.294 62.3002 144.294 64.8891V71.5433H143.203V64.8891C143.203 62.9206 142.069 61.6369 140.058 61.6369C137.961 61.6369 136.313 63.0062 136.313 65.8947V71.5433H135.244V60.8452H136.313V62.8779C137.127 61.2945 138.496 60.6099 140.143 60.6099Z" fill="white"/>
<path d="M131.412 58.2562C130.941 58.2562 130.556 57.8711 130.556 57.4004C130.556 56.951 130.941 56.5659 131.412 56.5659C131.883 56.5659 132.268 56.951 132.268 57.4004C132.268 57.8711 131.883 58.2562 131.412 58.2562ZM130.877 71.5432V60.8451H131.947V71.5432H130.877Z" fill="white"/>
<path d="M126.51 71.5432V55.9241H127.58V71.5432H126.51Z" fill="white"/>
<path d="M119.416 71.7786C116.185 71.7786 113.789 69.3609 113.789 66.1943C113.789 63.0276 116.185 60.6099 119.416 60.6099C121.513 60.6099 123.31 61.6797 124.081 63.3486L123.203 63.8621C122.583 62.5141 121.128 61.6369 119.416 61.6369C116.827 61.6369 114.88 63.6481 114.88 66.1943C114.88 68.7404 116.827 70.7516 119.416 70.7516C121.149 70.7516 122.561 69.853 123.268 68.5264L124.166 69.0613C123.31 70.7088 121.513 71.7786 119.416 71.7786Z" fill="white"/>
<path d="M103.07 62.9419C103.798 61.2516 105.189 60.6953 106.643 60.6953V61.7223C104.803 61.7223 103.07 62.8563 103.07 65.595V71.5431H102V60.8451H103.07V62.9419Z" fill="white"/>
<path d="M94.2149 60.6099C97.4671 60.6099 99.4998 63.3058 99.4998 66.237C99.4998 66.4082 99.4784 66.5794 99.4784 66.7506H89.7859C90.0427 69.1683 91.8828 70.7516 94.3219 70.7516C96.0764 70.7516 97.403 69.9386 98.0234 68.8046L98.9649 69.3609C98.0876 70.8158 96.4187 71.7786 94.3005 71.7786C91.0055 71.7786 88.6733 69.4251 88.6733 66.1943C88.6733 63.049 90.9413 60.6099 94.2149 60.6099ZM94.2149 61.6369C91.7758 61.6369 89.9999 63.3272 89.7859 65.7021H98.3872C98.1518 63.0918 96.3118 61.6369 94.2149 61.6369Z" fill="white"/>
<path d="M80.6421 63.6481C80.6421 66.5152 87.1252 64.8249 87.1252 68.7404C87.1252 70.4949 85.5846 71.7786 83.2952 71.7786C81.1556 71.7786 79.7435 70.773 79.23 69.4037L80.15 68.8688C80.5351 70.0242 81.6905 70.7516 83.2952 70.7516C84.793 70.7516 86.0553 70.0883 86.0553 68.7404C86.0553 65.8305 79.5723 67.4994 79.5723 63.6481C79.5723 61.9578 81.0273 60.6099 83.2097 60.6099C84.9427 60.6099 86.2693 61.4443 86.847 62.7495L85.9484 63.263C85.499 62.1504 84.3864 61.6369 83.2097 61.6369C81.8189 61.6369 80.6421 62.3643 80.6421 63.6481Z" fill="white"/>
<path d="M75.5387 60.8452H76.6299V71.5433H75.5387V69.1255C74.6401 70.7302 72.9926 71.7786 70.9386 71.7786C67.9003 71.7786 65.397 69.3609 65.397 66.1943C65.397 63.0276 67.9003 60.6099 70.9386 60.6099C72.9926 60.6099 74.6401 61.6583 75.5387 63.263V60.8452ZM71.0242 70.7516C73.5703 70.7516 75.5387 68.7404 75.5387 66.1943C75.5387 63.6481 73.5703 61.6369 71.0242 61.6369C68.478 61.6369 66.4882 63.6481 66.4882 66.1943C66.4882 68.7404 68.478 70.7516 71.0242 70.7516Z" fill="white"/>
<path d="M61.7573 71.5432V55.9241H62.8271V71.5432H61.7573Z" fill="white"/>
<path fill-rule="evenodd" clip-rule="evenodd" d="M57.301 46.804C53.0663 46.804 49.3889 45.7788 46.2686 43.7283C43.1929 41.6333 40.8081 38.8251 39.1143 35.3036C37.4204 31.7376 36.5735 27.7704 36.5735 23.402C36.5735 19.0336 37.4204 15.0887 39.1143 11.5673C40.8081 8.00126 43.1929 5.19302 46.2686 3.14256C49.3889 1.04752 53.0663 0 57.301 0C61.5356 0 65.1908 1.04752 68.2665 3.14256C71.3868 5.19302 73.7938 8.00126 75.4877 11.5673C77.1815 15.0887 78.0285 19.0336 78.0285 23.402C78.0285 27.7704 77.1815 31.7376 75.4877 35.3036C73.7938 38.8251 71.3868 41.6333 68.2665 43.7283C65.1908 45.7788 61.5356 46.804 57.301 46.804ZM57.301 44.1295C60.2429 44.1295 62.7615 43.2826 64.8565 41.5887C66.9515 39.8949 68.5562 37.5101 69.6706 34.4344C70.785 31.3141 71.3422 27.6367 71.3422 23.402C71.3422 19.1674 70.785 15.5122 69.6706 12.4365C68.5562 9.31623 66.9515 6.90916 64.8565 5.2153C62.7615 3.52144 60.2429 2.67451 57.301 2.67451C54.4036 2.67451 51.8851 3.52144 49.7455 5.2153C47.6504 6.90916 46.0457 9.31623 44.9313 12.4365C43.817 15.5122 43.2598 19.1674 43.2598 23.402C43.2598 27.6367 43.817 31.3141 44.9313 34.4344C46.0457 37.5101 47.6504 39.8949 49.7455 41.5887C51.8851 43.2826 54.4036 44.1295 57.301 44.1295ZM146.821 46.7776C143.078 46.6074 139.792 45.6132 136.964 43.7952C133.888 41.7447 131.504 39.0034 129.81 35.5711C128.116 32.0942 127.269 28.2607 127.269 24.0706C127.269 20.7275 127.804 17.6072 128.874 14.7098C129.943 11.7679 131.437 9.20479 133.353 7.0206C135.27 4.83642 137.477 3.12027 139.973 1.87216C142.469 0.624054 145.144 0 147.996 0C151.696 0 154.883 0.534903 157.558 1.60471C160.232 2.62994 162.171 3.87805 163.375 5.34903C164.222 6.37426 164.712 7.80067 164.846 9.62826C164.98 11.4558 165.046 13.3726 165.046 15.3785C164.199 11.0101 161.28 7.80067 158.962 5.75021C156.689 3.69974 153.702 2.67451 150.002 2.67451C147.105 2.67451 144.43 3.34314 141.979 4.6804C139.527 6.01766 137.566 8.24642 136.095 11.3667C134.668 14.487 133.955 18.7216 133.955 24.0706C133.955 26.5669 134.245 29.0185 134.824 31.4256C135.448 33.788 136.407 35.9277 137.699 37.8444C138.992 39.7611 140.641 41.299 142.647 42.4579C144.698 43.5723 147.149 44.1295 150.002 44.1295C150.224 44.1295 150.444 44.1277 150.662 44.124C159.28 43.3835 166.841 37.4114 174.543 31.2438V9.36081C174.543 7.35492 174.254 5.75021 173.674 4.54668C173.139 3.29857 170.532 1.33726 168.526 1.33726H174.543C176.104 1.33726 177.307 1.53785 178.154 1.93902C179.046 2.3402 179.67 3.12027 180.026 4.27922C180.383 5.43818 180.561 7.13204 180.561 9.36081V21.3961L180.567 21.3961V24.0706H180.561V26.512C186.769 21.8237 193.258 17.8259 200.62 17.0045V1.33726H206.638V17.063C207.267 17.1451 207.903 17.2518 208.545 17.3843C212.278 18.154 215.943 19.2861 219.566 20.4515V9.36081C219.566 7.35492 219.277 5.75021 218.697 4.54668C218.162 3.29857 215.566 1.33726 213.56 1.33726H242.032C243.592 1.33726 244.774 1.60471 245.576 2.13961C246.378 2.62994 246.935 3.29857 247.247 4.1455C247.56 4.94785 247.716 5.79478 247.716 6.68629V11.701C247.716 9.02649 245.788 6.55256 244.317 5.34903C242.891 4.10092 240.695 4.01178 238.02 4.01178H225.584V21.3961L225.595 21.3961V22.376C232.438 24.4762 239.177 26.0279 245.989 24.7393C247.994 24.3598 248.997 24.0706 250 23.402C249.331 24.0706 248.077 24.8609 246.307 25.25C244.284 25.6947 241.595 25.9402 238.204 25.9261C234.704 25.9116 230.56 25.5979 225.584 24.9296V42.7923H237.285C240.316 42.7923 242.913 42.5694 244.651 41.455C246.434 40.3406 248.964 38.4462 249.989 35.7717L247.649 42.1236C247.292 43.1489 246.69 43.9735 245.843 44.5975C245.041 45.177 243.971 45.4668 242.634 45.4668H219.566V24.0155C216.41 23.4864 212.97 22.8394 209.214 22.0648C208.339 21.8843 207.48 21.7473 206.638 21.6508V37.4432C206.638 39.4491 206.905 41.0761 207.44 42.3242C208.02 43.5277 210.649 45.4668 212.655 45.4668H206.638C205.078 45.4668 203.852 45.2662 202.96 44.865C202.113 44.4638 201.512 43.6838 201.155 42.5248C200.798 41.3658 200.62 39.672 200.62 37.4432V24.0706H200.626V21.6397C193.07 22.4979 186.74 26.568 180.561 31.1969V45.4668H174.543V35.7994C166.493 41.923 158.109 47.5328 147.031 46.804C146.963 46.7995 146.893 46.7906 146.821 46.7776ZM93.2006 43.9289C95.6969 45.3999 99.1069 46.1354 103.431 46.1354C108.022 46.1354 111.543 45.3999 113.995 43.9289C116.447 42.4579 118.14 40.2738 119.077 37.3764C120.013 34.4344 120.481 30.7792 120.481 26.4108V1.33726H117.806V26.4108C117.806 30.3335 117.383 33.5652 116.536 36.106C115.689 38.6022 114.285 40.4521 112.323 41.6556C110.362 42.8591 107.665 43.4609 104.233 43.4609C99.8201 43.4609 96.7444 42.1236 95.0059 39.4491C93.2675 36.7746 92.3983 33.0971 92.3983 28.4167V9.36081C92.3983 7.13204 92.22 5.43818 91.8634 4.27922C91.5068 3.12027 90.8827 2.3402 89.9912 1.93902C89.1443 1.53785 87.9408 1.33726 86.3806 1.33726H80.363C82.3689 1.33726 84.9765 3.29857 85.5114 4.54668C86.0909 5.75021 86.3806 7.35492 86.3806 9.36081V26.4108C86.3806 30.7792 86.8932 34.4344 87.9185 37.3764C88.9437 40.2738 90.7044 42.4579 93.2006 43.9289ZM15.7128 4.01178V45.4668H21.7304V4.01178H36.7746V1.33726H5.68335C4.16779 1.33726 2.98654 1.60471 2.13961 2.13961C1.33726 2.62994 0.780067 3.29857 0.46804 4.1455C0.156013 4.94785 0 5.79478 0 6.68629V11.701C0 9.02649 1.84989 6.55256 3.2763 5.34903C4.74728 4.10092 7.0206 4.01178 9.69512 4.01178H15.7128Z" fill="white"/>
</svg>
